<svg width="20" height="24" viewBox="0 0 20 24" fill="none" xmlns="http://www.w3.org/2000/svg">
<path d="M16.7034 12.7261C16.7379 16.3512 19.9643 17.5576 20 17.573C19.9727 17.658 19.4845 19.292 18.3003 20.9799C17.2765 22.4392 16.2139 23.893 14.5401 23.9231C12.8956 23.9527 12.3667 22.972 10.4863 22.972C8.60658 22.972 8.019 23.893 6.46213 23.9527C4.8465 24.0123 3.61619 22.3748 2.584 20.9208C0.47463 17.9469 -1.13732 12.517 1.02713 8.85181C2.10236 7.03162 4.024 5.87909 6.10963 5.84952C7.69611 5.82004 9.19361 6.89044 10.1635 6.89044C11.1327 6.89044 12.9524 5.6032 14.8655 5.79223C15.6663 5.82476 17.9144 6.10766 19.3579 8.16831C19.2415 8.23863 16.6755 9.69547 16.7034 12.7262M13.6125 3.82469C14.4703 2.81211 15.0476 1.40259 14.8901 0C13.6537 0.0484571 12.1587 0.803505 11.2718 1.81547C10.4771 2.7117 9.78104 4.14606 9.96885 5.52084C11.347 5.62484 12.7547 4.83787 13.6125 3.82469Z" fill="black"/>
</svg>
