<svg width="35" height="27" viewBox="0 0 35 27" fill="none" xmlns="http://www.w3.org/2000/svg">
<path d="M17.9907 11.1555C17.9907 12.1799 17.366 12.7692 16.2645 12.7692H14.818V9.54291H16.271C17.366 9.54291 17.9907 10.1258 17.9907 11.1555ZM20.8185 14.8823C20.8185 15.3762 21.2471 15.6977 21.92 15.6977C22.7772 15.6977 23.4201 15.1566 23.4201 14.3937V13.935L22.0207 14.024C21.2288 14.0776 20.8185 14.3701 20.8185 14.8823ZM34.2895 2.85773V23.8123C34.2887 24.5699 33.9873 25.2963 33.4516 25.8321C32.9158 26.3678 32.1895 26.6691 31.4318 26.67H2.85773C2.10007 26.6691 1.37369 26.3678 0.837949 25.8321C0.302205 25.2963 0.000850822 24.5699 0 23.8123V2.85773C0.000850822 2.10007 0.302205 1.37369 0.837949 0.83795C1.37369 0.302206 2.10007 0.000850822 2.85773 0H31.4318C32.1895 0.000850822 32.9158 0.302206 33.4516 0.83795C33.9873 1.37369 34.2887 2.10007 34.2895 2.85773ZM7.60883 9.8933C8.10922 9.93508 8.60855 9.64363 8.92465 9.27396C9.23431 8.8925 9.43683 8.38139 9.38325 7.86278C8.94286 7.88099 8.39532 8.15423 8.07922 8.53569C7.79313 8.86357 7.54989 9.3929 7.60883 9.8933ZM11.2166 14.3283C11.2048 14.3165 10.0497 13.8761 10.0379 12.5421C10.0262 11.4288 10.9487 10.893 10.9905 10.863C10.4666 10.0894 9.65649 10.0058 9.37683 9.98759C8.65034 9.9458 8.031 10.398 7.68598 10.398C7.33452 10.398 6.81055 10.0047 6.23943 10.0176C5.86649 10.0272 5.50259 10.1344 5.18407 10.3287C4.86555 10.5229 4.60357 10.7973 4.42428 11.1245C3.64422 12.4703 4.22177 14.4579 4.97826 15.553C5.34686 16.0942 5.79368 16.6899 6.37766 16.6663C6.93056 16.6428 7.15129 16.3095 7.81777 16.3095C8.49068 16.3095 8.68141 16.6663 9.26432 16.661C9.87187 16.6492 10.2469 16.1199 10.6219 15.5777C11.0323 14.9583 11.2048 14.3637 11.2177 14.3272L11.2166 14.3283ZM19.2766 11.1502C19.2766 9.56648 18.175 8.48318 16.6031 8.48318H13.5557V16.6031H14.818V13.829H16.5624C18.1579 13.829 19.2766 12.7339 19.2766 11.1502ZM24.6341 12.5603C24.6341 11.3881 23.6933 10.6316 22.2532 10.6316C20.9138 10.6316 19.9259 11.3998 19.8895 12.4467H21.0263C21.1217 11.9463 21.5857 11.6195 22.2168 11.6195C22.9904 11.6195 23.419 11.9763 23.419 12.6439V13.0907L21.8471 13.1861C20.3824 13.275 19.5916 13.8772 19.5916 14.9187C19.5916 15.972 20.407 16.6685 21.5792 16.6685C22.3711 16.6685 23.1029 16.2699 23.4362 15.6323H23.4597V16.6085H24.6266V12.5603H24.6341ZM30.7182 10.7087H29.4388L27.9569 15.507H27.9333L26.4514 10.7087H25.1238L27.2604 16.6203L27.1479 16.9771C26.9572 17.5846 26.6421 17.8225 26.0828 17.8225C25.9594 17.82 25.8362 17.8139 25.7131 17.8043V18.7804C25.7849 18.804 26.1 18.8104 26.1953 18.8104C27.4276 18.8104 28.0051 18.34 28.5109 16.9171L30.7182 10.7087Z" fill="#2F5A8C"/>
</svg>
