<svg width="16" height="16" viewBox="0 0 16 16" fill="none" xmlns="http://www.w3.org/2000/svg">
<path d="M7.99992 1.33331C4.32659 1.33331 1.33325 4.32665 1.33325 7.99998C1.33325 11.6733 4.32659 14.6666 7.99992 14.6666C11.6733 14.6666 14.6666 11.6733 14.6666 7.99998C14.6666 4.32665 11.6733 1.33331 7.99992 1.33331ZM10.6666 8.49998H8.49992V10.6666C8.49992 10.94 8.27325 11.1666 7.99992 11.1666C7.72658 11.1666 7.49992 10.94 7.49992 10.6666V8.49998H5.33325C5.05992 8.49998 4.83325 8.27331 4.83325 7.99998C4.83325 7.72665 5.05992 7.49998 5.33325 7.49998H7.49992V5.33331C7.49992 5.05998 7.72658 4.83331 7.99992 4.83331C8.27325 4.83331 8.49992 5.05998 8.49992 5.33331V7.49998H10.6666C10.9399 7.49998 11.1666 7.72665 11.1666 7.99998C11.1666 8.27331 10.9399 8.49998 10.6666 8.49998Z" fill="white"/>
</svg>
