<svg width="54" height="54" viewBox="0 0 54 54" fill="none" xmlns="http://www.w3.org/2000/svg">
<path d="M37 27C37 21.49 32.51 17 27 17C21.49 17 17 21.49 17 27C17 29.9 18.25 32.51 20.23 34.34C20.23 34.35 20.23 34.35 20.22 34.36C20.32 34.46 20.44 34.54 20.54 34.63C20.6 34.68 20.65 34.73 20.71 34.77C20.89 34.92 21.09 35.06 21.28 35.2C21.35 35.25 21.41 35.29 21.48 35.34C21.67 35.47 21.87 35.59 22.08 35.7C22.15 35.74 22.23 35.79 22.3 35.83C22.5 35.94 22.71 36.04 22.93 36.13C23.01 36.17 23.09 36.21 23.17 36.24C23.39 36.33 23.61 36.41 23.83 36.48C23.91 36.51 23.99 36.54 24.07 36.56C24.31 36.63 24.55 36.69 24.79 36.75C24.86 36.77 24.93 36.79 25.01 36.8C25.29 36.86 25.57 36.9 25.86 36.93C25.9 36.93 25.94 36.94 25.98 36.95C26.32 36.98 26.66 37 27 37C27.34 37 27.68 36.98 28.01 36.95C28.05 36.95 28.09 36.94 28.13 36.93C28.42 36.9 28.7 36.86 28.98 36.8C29.05 36.79 29.12 36.76 29.2 36.75C29.44 36.69 29.69 36.64 29.92 36.56C30 36.53 30.08 36.5 30.16 36.48C30.38 36.4 30.61 36.33 30.82 36.24C30.9 36.21 30.98 36.17 31.06 36.13C31.27 36.04 31.48 35.94 31.69 35.83C31.77 35.79 31.84 35.74 31.91 35.7C32.11 35.58 32.31 35.47 32.51 35.34C32.58 35.3 32.64 35.25 32.71 35.2C32.91 35.06 33.1 34.92 33.28 34.77C33.34 34.72 33.39 34.67 33.45 34.63C33.56 34.54 33.67 34.45 33.77 34.36C33.77 34.35 33.77 34.35 33.76 34.34C35.75 32.51 37 29.9 37 27ZM31.94 31.97C29.23 30.15 24.79 30.15 22.06 31.97C21.62 32.26 21.26 32.6 20.96 32.97C19.44 31.43 18.5 29.32 18.5 27C18.5 22.31 22.31 18.5 27 18.5C31.69 18.5 35.5 22.31 35.5 27C35.5 29.32 34.56 31.43 33.04 32.97C32.75 32.6 32.38 32.26 31.94 31.97Z" fill="#F5A92A"/>
<path d="M27 21.93C24.93 21.93 23.25 23.61 23.25 25.68C23.25 27.71 24.84 29.36 26.95 29.42C26.98 29.42 27.02 29.42 27.04 29.42C27.06 29.42 27.09 29.42 27.11 29.42C27.12 29.42 27.13 29.42 27.13 29.42C29.15 29.35 30.74 27.71 30.75 25.68C30.75 23.61 29.07 21.93 27 21.93Z" fill="#F5A92A"/>
</svg>
