<svg width="40" height="40" viewBox="0 0 40 40" fill="none" xmlns="http://www.w3.org/2000/svg">
<path d="M36.6668 31.6667V36.6667H3.3335V31.6667C3.3335 30.75 4.0835 30 5.00016 30H35.0002C35.9168 30 36.6668 30.75 36.6668 31.6667Z" fill="#2F5A8C" stroke="#2F5A8C" stroke-width="1.5" stroke-miterlimit="10" stroke-linecap="round" stroke-linejoin="round"/>
<path d="M11.6668 18.333H8.3335V29.9997H11.6668V18.333Z" fill="#2F5A8C"/>
<path d="M18.3333 18.333H15V29.9997H18.3333V18.333Z" fill="#2F5A8C"/>
<path d="M24.9998 18.333H21.6665V29.9997H24.9998V18.333Z" fill="#2F5A8C"/>
<path d="M31.6668 18.333H28.3335V29.9997H31.6668V18.333Z" fill="#2F5A8C"/>
<path d="M38.3332 37.917H1.6665C0.983171 37.917 0.416504 37.3503 0.416504 36.667C0.416504 35.9837 0.983171 35.417 1.6665 35.417H38.3332C39.0165 35.417 39.5832 35.9837 39.5832 36.667C39.5832 37.3503 39.0165 37.917 38.3332 37.917Z" fill="#2F5A8C"/>
<path d="M35.6168 9.5834L20.6168 3.5834C20.2835 3.45007 19.7168 3.45007 19.3835 3.5834L4.3835 9.5834C3.80016 9.81673 3.3335 10.5001 3.3335 11.1334V16.6667C3.3335 17.5834 4.0835 18.3334 5.00016 18.3334H35.0002C35.9168 18.3334 36.6668 17.5834 36.6668 16.6667V11.1334C36.6668 10.5001 36.2002 9.81673 35.6168 9.5834ZM20.0002 14.1667C18.6168 14.1667 17.5002 13.0501 17.5002 11.6667C17.5002 10.2834 18.6168 9.16673 20.0002 9.16673C21.3835 9.16673 22.5002 10.2834 22.5002 11.6667C22.5002 13.0501 21.3835 14.1667 20.0002 14.1667Z" fill="#2F5A8C"/>
</svg>
