<svg width="14" height="14" viewBox="0 0 14 14" fill="none" xmlns="http://www.w3.org/2000/svg">
<path fill-rule="evenodd" clip-rule="evenodd" d="M3.33333 0C2.44928 0 1.60143 0.351189 0.976311 0.976311C0.351189 1.60143 0 2.44928 0 3.33333V10C0 10.8841 0.351189 11.7319 0.976311 12.357C1.60143 12.9821 2.44928 13.3333 3.33333 13.3333H10C10.8841 13.3333 11.7319 12.9821 12.357 12.357C12.9821 11.7319 13.3333 10.8841 13.3333 10V3.33333C13.3333 2.44928 12.9821 1.60143 12.357 0.976311C11.7319 0.351189 10.8841 0 10 0H3.33333ZM9.15333 5.78933C9.21321 5.72542 9.25992 5.65034 9.29079 5.56838C9.32166 5.48642 9.33608 5.39918 9.33323 5.31165C9.33038 5.22411 9.31032 5.138 9.27419 5.05822C9.23806 4.97843 9.18658 4.90655 9.12267 4.84667C9.05876 4.78678 8.98368 4.74008 8.90172 4.70921C8.81975 4.67834 8.73252 4.66392 8.64498 4.66677C8.55745 4.66961 8.47133 4.68968 8.39155 4.7258C8.31177 4.76193 8.23988 4.81342 8.18 4.87733L6.12467 7.07067L5.10933 6.16867C4.97631 6.05808 4.8055 6.00353 4.633 6.01655C4.4605 6.02956 4.29981 6.10912 4.18488 6.23841C4.06995 6.36771 4.00978 6.53662 4.01708 6.70945C4.02438 6.88229 4.09858 7.04552 4.224 7.16467L5.724 8.498C5.85379 8.61329 6.02344 8.67341 6.19686 8.66556C6.37029 8.65772 6.53381 8.58254 6.65267 8.456L9.15333 5.78933Z" fill="#B6C4D8"/>
</svg>
