<svg width="40" height="40" viewBox="0 0 40 40" fill="none" xmlns="http://www.w3.org/2000/svg">
<rect width="40" height="40" rx="20" fill="#333333"/>
<path d="M18.6232 13.9579C21.2562 10.8423 25.3528 9.5 29.1176 9.5C29.3516 9.5 29.5761 9.59758 29.7416 9.77127C29.907 9.94496 30 10.1805 30 10.4262C30 14.3778 28.7211 18.6777 25.7528 21.4413C25.6811 22.696 25.3116 23.9519 24.7834 25.0546C24.1951 26.2821 23.3775 27.3848 22.4621 28.1147C21.5668 28.8284 20.4091 29.3039 19.2656 28.8568C18.1832 28.4333 17.4538 27.3132 17.0302 25.7227L14.5443 23.1121C13.0289 22.6688 11.9618 21.9032 11.5583 20.7671C11.1324 19.5668 11.5854 18.3517 12.2654 17.4119C12.9607 16.4512 14.0113 15.5929 15.1808 14.9755C16.2314 14.421 17.4279 14.0333 18.622 13.9592M17.0585 16.1585C16.6866 16.2889 16.3241 16.4469 15.9737 16.6315C14.9902 17.1513 14.1701 17.8441 13.6713 18.5332C13.1572 19.2445 13.0913 19.7804 13.2125 20.1212C13.3101 20.4003 13.6266 20.8091 14.4996 21.1536C14.6984 20.6856 14.9843 20.0385 15.3431 19.2963C15.7996 18.3541 16.3808 17.2452 17.0585 16.1585ZM18.8985 25.7721C19.2256 26.6884 19.6162 27.0193 19.8821 27.1243C20.2056 27.2502 20.7174 27.1811 21.395 26.6427C22.0515 26.1178 22.7116 25.2571 23.2069 24.2248C23.3849 23.8535 23.5351 23.474 23.6575 23.0862C22.6931 23.7427 21.6956 24.3437 20.6691 24.8867C19.9609 25.2633 19.3444 25.5634 18.8985 25.7721ZM11.8054 24.9422C12.2796 24.5264 12.8828 24.3078 13.5004 24.3278C14.118 24.3479 14.7072 24.6052 15.156 25.0509L15.1666 25.0633C16.1067 26.0388 16.0914 27.5997 15.2878 28.6012C14.9407 29.0359 14.4666 29.3495 14.0207 29.5792C13.5654 29.8139 13.0748 29.9904 12.6383 30.1226C12.1136 30.2792 11.58 30.4009 11.0406 30.4869L11.0124 30.4906L11.003 30.4918H10.9995C10.8651 30.5107 10.7284 30.4968 10.5999 30.4513C10.4715 30.4057 10.3547 30.3297 10.2588 30.2291C10.1629 30.1286 10.0903 30.0061 10.0468 29.8714C10.0032 29.7366 9.98983 29.5931 10.0077 29.452V29.4483L10.0088 29.4385L10.0135 29.4088C10.0351 29.248 10.061 29.0878 10.0912 28.9284C10.1465 28.6185 10.2336 28.1925 10.3594 27.7294C10.4914 27.2298 10.6642 26.7431 10.8759 26.2747C11.0936 25.8054 11.3924 25.309 11.8054 24.9422ZM24.3375 15.3287C24.172 15.1552 23.9478 15.0578 23.7139 15.0578C23.4801 15.0578 23.2558 15.1552 23.0904 15.3287L22.2586 16.2017C22.1027 16.3773 22.0179 16.6095 22.0219 16.8494C22.026 17.0894 22.1186 17.3183 22.2802 17.488C22.4419 17.6577 22.66 17.7549 22.8886 17.7591C23.1172 17.7634 23.3384 17.6743 23.5057 17.5107L24.3375 16.6376C24.5027 16.464 24.5955 16.2286 24.5955 15.9831C24.5955 15.7377 24.5027 15.5023 24.3375 15.3287Z" fill="#B6C4D8"/>
</svg>
