<svg width="24" height="24" viewBox="0 0 24 24" fill="none" xmlns="http://www.w3.org/2000/svg">
<path opacity="0.3" d="M11.9995 4C18.9275 4 23.2575 11.5 19.7935 17.5C19.0036 18.8681 17.8675 20.0043 16.4994 20.7942C15.1312 21.5841 13.5793 22 11.9995 22C5.07149 22 0.741491 14.5 4.20549 8.5C4.99539 7.13186 6.13149 5.99574 7.49962 5.20583C8.86775 4.41592 10.4197 4.00004 11.9995 4Z" fill="#B6C4D8"/>
<path d="M7.36534 2.97097C7.49794 3.20065 7.53387 3.47359 7.46523 3.72977C7.3966 3.98594 7.22901 4.20435 6.99934 4.33697C5.95904 4.94034 5.03486 5.72465 4.27034 6.65297C4.18835 6.75856 4.08602 6.84665 3.9694 6.91201C3.85278 6.97738 3.72423 7.01869 3.59137 7.03352C3.4585 7.04835 3.32402 7.03638 3.19586 6.99833C3.0677 6.96028 2.94847 6.89692 2.84522 6.81199C2.74197 6.72707 2.6568 6.6223 2.59474 6.50389C2.53268 6.38548 2.49499 6.25582 2.48391 6.12259C2.47283 5.98936 2.48857 5.85527 2.53021 5.72823C2.57185 5.60119 2.63854 5.48379 2.72634 5.38297C3.64097 4.2683 4.74902 3.3276 5.99734 2.60597C6.11104 2.54011 6.23662 2.49731 6.36688 2.48002C6.49713 2.46272 6.62953 2.47126 6.75648 2.50516C6.88344 2.53906 7.00246 2.59765 7.10676 2.67757C7.21106 2.7575 7.29859 2.8572 7.36434 2.97097H7.36534ZM17.9993 2.60597C19.2479 3.3272 20.3563 4.26757 21.2713 5.38197C21.431 5.58761 21.5042 5.84741 21.4753 6.10615C21.4464 6.36489 21.3178 6.60217 21.1167 6.76755C20.9157 6.93294 20.658 7.01339 20.3986 6.9918C20.1391 6.97022 19.8983 6.8483 19.7273 6.65197C18.9643 5.72249 18.0398 4.93826 16.9983 4.33697C16.7688 4.20409 16.6014 3.98548 16.5331 3.72921C16.4647 3.47294 16.501 3.20001 16.6338 2.97047C16.7667 2.74092 16.9853 2.57356 17.2416 2.50521C17.4979 2.43685 17.7698 2.47309 17.9993 2.60597ZM11.9993 7.99997C11.7544 8 11.518 8.08992 11.335 8.25268C11.1519 8.41544 11.035 8.63972 11.0063 8.88297L10.9993 8.99997V12.986C10.9963 13.208 11.0673 13.426 11.2013 13.603L11.2913 13.707L13.3973 15.812C13.5769 15.9932 13.8189 16.099 14.0739 16.1077C14.3289 16.1163 14.5775 16.0272 14.7689 15.8585C14.9603 15.6898 15.08 15.4544 15.1035 15.2003C15.127 14.9463 15.0526 14.6929 14.8953 14.492L14.8113 14.398L12.9993 12.586V8.99997C12.9993 8.73475 12.894 8.4804 12.7064 8.29286C12.5189 8.10532 12.2646 7.99997 11.9993 7.99997Z" fill="#B6C4D8"/>
</svg>
