<svg width="22" height="23" viewBox="0 0 22 23" fill="none" xmlns="http://www.w3.org/2000/svg">
<g filter="url(#filter0_d_85_6261)">
<g filter="url(#filter1_d_85_6261)">
<path d="M10.6667 1.33334C6.99333 1.33334 4 4.32667 4 8C4 11.6733 6.99333 14.6667 10.6667 14.6667C14.34 14.6667 17.3333 11.6733 17.3333 8C17.3333 4.32667 14.34 1.33334 10.6667 1.33334ZM12.9067 9.53334C13.1 9.72667 13.1 10.0467 12.9067 10.24C12.8067 10.34 12.68 10.3867 12.5533 10.3867C12.4267 10.3867 12.3 10.34 12.2 10.24L10.6667 8.70667L9.13333 10.24C9.03333 10.34 8.90667 10.3867 8.78 10.3867C8.65333 10.3867 8.52667 10.34 8.42667 10.24C8.23333 10.0467 8.23333 9.72667 8.42667 9.53334L9.96 8L8.42667 6.46667C8.23333 6.27334 8.23333 5.95334 8.42667 5.76C8.62 5.56667 8.94 5.56667 9.13333 5.76L10.6667 7.29334L12.2 5.76C12.3933 5.56667 12.7133 5.56667 12.9067 5.76C13.1 5.95334 13.1 6.27334 12.9067 6.46667L11.3733 8L12.9067 9.53334Z" fill="#D64545"/>
</g>
</g>
<defs>
<filter id="filter0_d_85_6261" x="1.66669" y="-1" width="18" height="18" filterUnits="userSpaceOnUse" color-interpolation-filters="sRGB">
<feFlood flood-opacity="0" result="BackgroundImageFix"/>
<feColorMatrix in="SourceAlpha" type="matrix" values="0 0 0 0 0 0 0 0 0 0 0 0 0 0 0 0 0 0 127 0" result="hardAlpha"/>
<feOffset/>
<feGaussianBlur stdDeviation="0.5"/>
<feComposite in2="hardAlpha" operator="out"/>
<feColorMatrix type="matrix" values="0 0 0 0 0 0 0 0 0 0 0 0 0 0 0 0 0 0 0.25 0"/>
<feBlend mode="normal" in2="BackgroundImageFix" result="effect1_dropShadow_85_6261"/>
<feBlend mode="normal" in="SourceGraphic" in2="effect1_dropShadow_85_6261" result="shape"/>
</filter>
<filter id="filter1_d_85_6261" x="0" y="1.33334" width="21.3333" height="21.3333" filterUnits="userSpaceOnUse" color-interpolation-filters="sRGB">
<feFlood flood-opacity="0" result="BackgroundImageFix"/>
<feColorMatrix in="SourceAlpha" type="matrix" values="0 0 0 0 0 0 0 0 0 0 0 0 0 0 0 0 0 0 127 0" result="hardAlpha"/>
<feOffset dy="4"/>
<feGaussianBlur stdDeviation="2"/>
<feComposite in2="hardAlpha" operator="out"/>
<feColorMatrix type="matrix" values="0 0 0 0 0 0 0 0 0 0 0 0 0 0 0 0 0 0 0.25 0"/>
<feBlend mode="normal" in2="BackgroundImageFix" result="effect1_dropShadow_85_6261"/>
<feBlend mode="normal" in="SourceGraphic" in2="effect1_dropShadow_85_6261" result="shape"/>
</filter>
</defs>
</svg>
