<svg width="52" height="52" viewBox="0 0 52 52" fill="none" xmlns="http://www.w3.org/2000/svg">
<path d="M47.1469 34.493L33.2802 9.53301C31.4169 6.17467 28.8385 4.33301 26.0002 4.33301C23.1619 4.33301 20.5835 6.17467 18.7202 9.53301L4.85353 34.493C3.09853 37.678 2.90353 40.733 4.31186 43.138C5.7202 45.543 8.49353 46.8647 12.1335 46.8647H39.8669C43.5069 46.8647 46.2802 45.543 47.6885 43.138C49.0969 40.733 48.9019 37.6563 47.1469 34.493ZM24.3752 19.4997C24.3752 18.6113 25.1119 17.8747 26.0002 17.8747C26.8885 17.8747 27.6252 18.6113 27.6252 19.4997V30.333C27.6252 31.2213 26.8885 31.958 26.0002 31.958C25.1119 31.958 24.3752 31.2213 24.3752 30.333V19.4997ZM27.5385 38.3713C27.4302 38.458 27.3219 38.5447 27.2135 38.6313C27.0835 38.718 26.9535 38.783 26.8235 38.8263C26.6935 38.8913 26.5635 38.9347 26.4119 38.9563C26.2819 38.978 26.1302 38.9997 26.0002 38.9997C25.8702 38.9997 25.7185 38.978 25.5669 38.9563C25.4369 38.9347 25.3069 38.8913 25.1769 38.8263C25.0469 38.783 24.9169 38.718 24.7869 38.6313C24.6785 38.5447 24.5702 38.458 24.4619 38.3713C24.0719 37.9597 23.8335 37.3963 23.8335 36.833C23.8335 36.2697 24.0719 35.7063 24.4619 35.2947C24.5702 35.208 24.6785 35.1213 24.7869 35.0347C24.9169 34.948 25.0469 34.883 25.1769 34.8397C25.3069 34.7747 25.4369 34.7313 25.5669 34.7097C25.8485 34.6447 26.1519 34.6447 26.4119 34.7097C26.5635 34.7313 26.6935 34.7747 26.8235 34.8397C26.9535 34.883 27.0835 34.948 27.2135 35.0347C27.3219 35.1213 27.4302 35.208 27.5385 35.2947C27.9285 35.7063 28.1669 36.2697 28.1669 36.833C28.1669 37.3963 27.9285 37.9597 27.5385 38.3713Z" fill="#2F5A8C"/>
</svg>
