<svg width="40" height="40" viewBox="0 0 40 40" fill="none" xmlns="http://www.w3.org/2000/svg">
<rect width="40" height="40" rx="20" fill="#333333"/>
<path d="M19.0511 21.2664L17.4281 19.6807C17.3438 19.5981 17.2411 19.5538 17.12 19.5479C16.9983 19.542 16.8877 19.588 16.7883 19.6861C16.6919 19.7805 16.6437 19.8851 16.6437 19.9996C16.6437 20.1142 16.6919 20.2187 16.7883 20.3132L18.5397 22.03C18.6861 22.1729 18.8565 22.2444 19.0511 22.2444C19.2457 22.2444 19.4162 22.1729 19.5626 22.03L23.2117 18.453C23.2996 18.3667 23.3457 18.2652 23.3499 18.1482C23.3542 18.0307 23.3081 17.9232 23.2117 17.8258C23.1123 17.7283 23.0047 17.6787 22.8891 17.677C22.7734 17.6752 22.6662 17.723 22.5674 17.8205L19.0511 21.2664ZM16.9908 27.6321L15.8015 25.6832L13.5595 25.219C13.38 25.1866 13.2369 25.0921 13.1302 24.9356C13.0236 24.7797 12.9796 24.6137 12.9983 24.4377L13.2125 22.1735L11.6916 20.4727C11.5639 20.3445 11.5 20.1869 11.5 19.9996C11.5 19.8124 11.5639 19.6548 11.6916 19.5266L13.2125 17.8258L12.9983 15.5624C12.9802 15.3859 13.0242 15.2196 13.1302 15.0637C13.2369 14.9078 13.38 14.8133 13.5595 14.7802L15.8006 14.317L16.9898 12.3681C17.0874 12.2098 17.2185 12.1006 17.3829 12.0403C17.5474 11.9795 17.7176 11.9875 17.8935 12.0643L20 12.9368L22.1056 12.0643C22.2821 11.9875 22.4526 11.9795 22.6171 12.0403C22.7815 12.1006 22.9126 12.2098 23.0102 12.3681L24.1985 14.317L26.4405 14.7802C26.62 14.8133 26.7631 14.9078 26.8698 15.0637C26.9764 15.2196 27.0204 15.3859 27.0017 15.5624L26.7884 17.8258L28.3084 19.5266C28.4361 19.6548 28.5 19.8124 28.5 19.9996C28.5 20.1869 28.4361 20.3448 28.3084 20.4736L26.7884 22.1735L27.0017 24.4368C27.0198 24.6134 26.9758 24.7797 26.8698 24.9356C26.7631 25.0921 26.62 25.1866 26.4405 25.219L24.1994 25.6832L23.0102 27.6321C22.9126 27.7898 22.7815 27.899 22.6171 27.9598C22.4526 28.0207 22.2824 28.0124 22.1065 27.935L20 27.0625L17.8944 27.935C17.7179 28.0118 17.5474 28.0198 17.3829 27.959C17.2185 27.8987 17.0874 27.7895 16.9898 27.6312" fill="#B6C4D8"/>
</svg>
