<svg width="48" height="48" viewBox="0 0 48 48" fill="none" xmlns="http://www.w3.org/2000/svg">
<g filter="url(#filter0_d_85_10013)">
<rect x="4" y="4" width="40" height="40" rx="20" fill="#E2E8F0"/>
<path d="M23.0511 25.2664L21.4281 23.6807C21.3438 23.5981 21.2411 23.5538 21.12 23.5479C20.9983 23.542 20.8877 23.588 20.7883 23.6861C20.6919 23.7805 20.6437 23.8851 20.6437 23.9996C20.6437 24.1142 20.6919 24.2187 20.7883 24.3132L22.5397 26.03C22.6861 26.1729 22.8565 26.2444 23.0511 26.2444C23.2457 26.2444 23.4162 26.1729 23.5626 26.03L27.2117 22.453C27.2996 22.3667 27.3457 22.2652 27.3499 22.1482C27.3542 22.0307 27.3081 21.9232 27.2117 21.8258C27.1123 21.7283 27.0047 21.6787 26.8891 21.677C26.7734 21.6752 26.6662 21.723 26.5674 21.8205L23.0511 25.2664ZM20.9908 31.6321L19.8015 29.6832L17.5595 29.219C17.38 29.1866 17.2369 29.0921 17.1302 28.9356C17.0236 28.7797 16.9796 28.6137 16.9983 28.4377L17.2125 26.1735L15.6916 24.4727C15.5639 24.3445 15.5 24.1869 15.5 23.9996C15.5 23.8124 15.5639 23.6548 15.6916 23.5266L17.2125 21.8258L16.9983 19.5624C16.9802 19.3859 17.0242 19.2196 17.1302 19.0637C17.2369 18.9078 17.38 18.8133 17.5595 18.7802L19.8006 18.317L20.9898 16.3681C21.0874 16.2098 21.2185 16.1006 21.3829 16.0403C21.5474 15.9795 21.7176 15.9875 21.8935 16.0643L24 16.9368L26.1056 16.0643C26.2821 15.9875 26.4526 15.9795 26.6171 16.0403C26.7815 16.1006 26.9126 16.2098 27.0102 16.3681L28.1985 18.317L30.4405 18.7802C30.62 18.8133 30.7631 18.9078 30.8698 19.0637C30.9764 19.2196 31.0204 19.3859 31.0017 19.5624L30.7884 21.8258L32.3084 23.5266C32.4361 23.6548 32.5 23.8124 32.5 23.9996C32.5 24.1869 32.4361 24.3448 32.3084 24.4736L30.7884 26.1735L31.0017 28.4368C31.0198 28.6134 30.9758 28.7797 30.8698 28.9356C30.7631 29.0921 30.62 29.1866 30.4405 29.219L28.1994 29.6832L27.0102 31.6321C26.9126 31.7898 26.7815 31.899 26.6171 31.9598C26.4526 32.0207 26.2824 32.0124 26.1065 31.935L24 31.0625L21.8944 31.935C21.7179 32.0118 21.5474 32.0198 21.3829 31.959C21.2185 31.8987 21.0874 31.7895 20.9898 31.6312" fill="#2F5A8C"/>
</g>
<defs>
<filter id="filter0_d_85_10013" x="0" y="0" width="48" height="48" filterUnits="userSpaceOnUse" color-interpolation-filters="sRGB">
<feFlood flood-opacity="0" result="BackgroundImageFix"/>
<feColorMatrix in="SourceAlpha" type="matrix" values="0 0 0 0 0 0 0 0 0 0 0 0 0 0 0 0 0 0 127 0" result="hardAlpha"/>
<feOffset/>
<feGaussianBlur stdDeviation="2"/>
<feComposite in2="hardAlpha" operator="out"/>
<feColorMatrix type="matrix" values="0 0 0 0 0 0 0 0 0 0 0 0 0 0 0 0 0 0 0.25 0"/>
<feBlend mode="normal" in2="BackgroundImageFix" result="effect1_dropShadow_85_10013"/>
<feBlend mode="normal" in="SourceGraphic" in2="effect1_dropShadow_85_10013" result="shape"/>
</filter>
</defs>
</svg>
