<svg width="44" height="44" viewBox="0 0 44 44" fill="none" xmlns="http://www.w3.org/2000/svg">
<rect width="44" height="44" rx="22" fill="#E2E8F0"/>
<path d="M26.19 12H17.81C14.17 12 12 14.17 12 17.81V26.18C12 29.83 14.17 32 17.81 32H26.18C29.82 32 31.99 29.83 31.99 26.19V17.81C32 14.17 29.83 12 26.19 12ZM26.88 24.33C26.88 24.42 26.86 24.51 26.83 24.6C26.76 24.77 26.62 24.91 26.45 24.98C26.36 25.02 26.27 25.03 26.18 25.03H24.32C23.93 25.03 23.62 24.72 23.62 24.33C23.62 23.94 23.93 23.63 24.32 23.63H24.5L22.39 21.52L21.37 23.04C21.25 23.21 21.07 23.33 20.86 23.35C20.65 23.37 20.45 23.3 20.3 23.15L17.32 20.17C17.05 19.9 17.05 19.46 17.32 19.18C17.59 18.9 18.03 18.91 18.31 19.18L20.69 21.56L21.71 20.04C21.83 19.87 22.01 19.75 22.22 19.73C22.44 19.71 22.63 19.78 22.78 19.93L25.5 22.65V22.47C25.5 22.08 25.81 21.77 26.2 21.77C26.59 21.77 26.9 22.08 26.9 22.47V24.33H26.88Z" fill="#22C55E"/>
</svg>
