<svg width="24" height="24" viewBox="0 0 24 24" fill="none" xmlns="http://www.w3.org/2000/svg">
<path d="M12 11.9999L3.048 8.4239L3.6 21.5999H1.2L1.776 7.9079L0 7.1999L12 2.3999L24 7.1999L12 11.9999ZM12 5.9999C11.34 5.9999 10.8 6.2639 10.8 6.5999C10.8 6.9359 11.34 7.1999 12 7.1999C12.66 7.1999 13.2 6.9359 13.2 6.5999C13.2 6.2639 12.66 5.9999 12 5.9999ZM12 13.1999L18.684 10.5239C19.536 11.6519 20.124 13.0079 20.316 14.4839C19.956 14.4359 19.584 14.3999 19.2 14.3999C16.14 14.3999 13.464 16.0439 12 18.4919C11.2565 17.2451 10.2022 16.2126 8.94022 15.4954C7.67818 14.7781 6.25161 14.4007 4.8 14.3999C4.416 14.3999 4.044 14.4359 3.684 14.4839C3.876 13.0079 4.464 11.6519 5.316 10.5239L12 13.1999Z" fill="#2F5A8C"/>
</svg>
