<svg width="54" height="54" viewBox="0 0 54 54" fill="none" xmlns="http://www.w3.org/2000/svg">
<rect x="0.75" y="0.75" width="52.5" height="52.5" rx="26.25" stroke="#F5A92A" stroke-width="1.5"/>
<path d="M35.9799 18.0201C35.1099 17.1501 33.8799 16.8101 32.6899 17.1101L22.8899 19.5601C21.2399 19.9701 19.9699 21.2501 19.5599 22.8901L17.1099 32.7001C16.8099 33.8901 17.1499 35.1201 18.0199 35.9901C18.6799 36.6401 19.5499 37.0001 20.4499 37.0001C20.7299 37.0001 21.0199 36.9701 21.2999 36.8901L31.1099 34.4401C32.7499 34.0301 34.0299 32.7601 34.4399 31.1101L36.8899 21.3001C37.1899 20.1101 36.8499 18.8801 35.9799 18.0201ZM26.9999 30.8801C24.8599 30.8801 23.1199 29.1401 23.1199 27.0001C23.1199 24.8601 24.8599 23.1201 26.9999 23.1201C29.1399 23.1201 30.8799 24.8601 30.8799 27.0001C30.8799 29.1401 29.1399 30.8801 26.9999 30.8801Z" fill="#F5A92A"/>
</svg>
