<svg width="24" height="24" viewBox="0 0 24 24" fill="none" xmlns="http://www.w3.org/2000/svg">
<path d="M2 21.9999V19.9999C2 19.9999 7 17.9999 12 17.9999C17 17.9999 22 19.9999 22 19.9999V21.9999H2ZM11.3 9.09993C10.1 5.19993 4 6.09993 4 6.09993C4 6.09993 4.2 13.8999 9.9 12.6999C9.5 9.79993 8 8.99993 8 8.99993C10.8 8.99993 11 12.3999 11 12.3999V16.9999H13V12.7999C13 12.7999 13 8.89993 16 7.89993C16 7.89993 14 10.8999 14 12.8999C21 13.5999 21 3.99993 21 3.99993C21 3.99993 12.1 2.99993 11.3 9.09993Z" fill="#2F5A8C"/>
</svg>
