<svg width="40" height="40" viewBox="0 0 40 40" fill="none" xmlns="http://www.w3.org/2000/svg">
<rect width="40" height="40" rx="20" fill="#E2E8F0"/>
<path opacity="0.3" d="M20.0005 12C26.9285 12 31.2585 19.5 27.7945 25.5C27.0046 26.8681 25.8685 28.0043 24.5003 28.7942C23.1322 29.5841 21.5803 30 20.0005 30C13.0725 30 8.74247 22.5 12.2065 16.5C12.9964 15.1319 14.1325 13.9957 15.5006 13.2058C16.8687 12.4159 18.4207 12 20.0005 12Z" fill="#2F5A8C"/>
<path d="M15.3663 10.9708C15.4989 11.2005 15.5348 11.4735 15.4662 11.7296C15.3976 11.9858 15.23 12.2042 15.0003 12.3368C13.96 12.9402 13.0358 13.7245 12.2713 14.6528C12.1893 14.7584 12.087 14.8465 11.9704 14.9119C11.8538 14.9773 11.7252 15.0186 11.5923 15.0334C11.4595 15.0482 11.325 15.0363 11.1968 14.9982C11.0687 14.9602 10.9494 14.8968 10.8462 14.8119C10.7429 14.7269 10.6578 14.6222 10.5957 14.5038C10.5337 14.3854 10.496 14.2557 10.4849 14.1225C10.4738 13.9892 10.4895 13.8551 10.5312 13.7281C10.5728 13.6011 10.6395 13.4837 10.7273 13.3828C11.642 12.2682 12.75 11.3275 13.9983 10.6058C14.112 10.54 14.2376 10.4972 14.3679 10.4799C14.4981 10.4626 14.6305 10.4711 14.7575 10.505C14.8844 10.5389 15.0034 10.5975 15.1077 10.6774C15.212 10.7574 15.2996 10.8571 15.3653 10.9708H15.3663ZM26.0003 10.6058C27.2489 11.3271 28.3573 12.2674 29.2723 13.3818C29.432 13.5875 29.5051 13.8473 29.4763 14.106C29.4474 14.3648 29.3188 14.602 29.1177 14.7674C28.9166 14.9328 28.659 15.0133 28.3995 14.9917C28.1401 14.9701 27.8993 14.8482 27.7283 14.6518C26.9652 13.7224 26.0408 12.9381 24.9993 12.3368C24.7698 12.204 24.6024 11.9854 24.5341 11.7291C24.4657 11.4728 24.5019 11.1999 24.6348 10.9703C24.7677 10.7408 24.9863 10.5734 25.2426 10.5051C25.4988 10.4367 25.7708 10.473 26.0003 10.6058ZM20.0003 15.9998C19.7554 15.9999 19.519 16.0898 19.3359 16.2526C19.1529 16.4153 19.036 16.6396 19.0073 16.8828L19.0003 16.9998V20.9858C18.9973 21.2078 19.0683 21.4258 19.2023 21.6028L19.2923 21.7068L21.3983 23.8118C21.5779 23.9931 21.8199 24.0989 22.0749 24.1075C22.3298 24.1162 22.5785 24.027 22.7699 23.8584C22.9613 23.6897 23.081 23.4543 23.1045 23.2002C23.128 22.9462 23.0535 22.6928 22.8963 22.4918L22.8123 22.3978L21.0003 20.5858V16.9998C21.0003 16.7346 20.895 16.4803 20.7074 16.2927C20.5199 16.1052 20.2655 15.9998 20.0003 15.9998Z" fill="#2F5A8C"/>
</svg>
