<svg width="16" height="16" viewBox="0 0 16 16" fill="none" xmlns="http://www.w3.org/2000/svg">
<path d="M10.7935 1.33331H5.20683C2.78016 1.33331 1.3335 2.77998 1.3335 5.20665V10.7866C1.3335 13.22 2.78016 14.6666 5.20683 14.6666H10.7868C13.2135 14.6666 14.6602 13.22 14.6602 10.7933V5.20665C14.6668 2.77998 13.2202 1.33331 10.7935 1.33331ZM7.30016 11.6733C7.10683 11.8666 6.74016 12.0533 6.4735 12.0933L4.8335 12.3266C4.7735 12.3333 4.7135 12.34 4.6535 12.34C4.38016 12.34 4.12683 12.2466 3.94683 12.0666C3.72683 11.8466 3.6335 11.5266 3.68683 11.1733L3.92016 9.53331C3.96016 9.25998 4.14016 8.89998 4.34016 8.70665L7.3135 5.73331C7.36683 5.87331 7.42016 6.01331 7.4935 6.17331C7.56016 6.31331 7.6335 6.45998 7.7135 6.59331C7.78016 6.70665 7.8535 6.81331 7.9135 6.89331C7.98683 7.00665 8.0735 7.11331 8.12683 7.17331C8.16016 7.21998 8.18683 7.25331 8.20016 7.26665C8.36683 7.46665 8.56016 7.65331 8.72683 7.79331C8.7735 7.83998 8.80016 7.86665 8.8135 7.87331C8.9135 7.95331 9.0135 8.03331 9.10016 8.09331C9.20683 8.17331 9.3135 8.24665 9.42683 8.30665C9.56016 8.38665 9.70683 8.45998 9.8535 8.53331C10.0068 8.59998 10.1468 8.65998 10.2868 8.70665L7.30016 11.6733ZM11.5802 7.39331L10.9668 8.01331C10.9268 8.05331 10.8735 8.07331 10.8202 8.07331C10.8002 8.07331 10.7735 8.07331 10.7602 8.06665C9.40683 7.67998 8.32683 6.59998 7.94016 5.24665C7.92016 5.17331 7.94016 5.09331 7.9935 5.04665L8.6135 4.42665C9.62683 3.41331 10.5935 3.43331 11.5868 4.42665C12.0935 4.93331 12.3402 5.41998 12.3402 5.92665C12.3335 6.40665 12.0868 6.88665 11.5802 7.39331Z" fill="white"/>
</svg>
