<svg width="44" height="44" viewBox="0 0 44 44" fill="none" xmlns="http://www.w3.org/2000/svg">
<rect width="44" height="44" rx="22" fill="#E2E8F0"/>
<path d="M12.345 23.138V14.9694C12.3454 13.6583 12.8665 12.401 13.7935 11.474C14.7206 10.5469 15.9779 10.0258 17.289 10.0254H26.7107C28.0218 10.0258 29.279 10.5469 30.2061 11.474C31.1332 12.401 31.6542 13.6583 31.6547 14.9694V23.138C31.6544 24.1756 31.3278 25.1868 30.7211 26.0285C30.1145 26.8703 29.2584 27.4999 28.2741 27.8282L26.3884 28.4574V29.4431C26.3884 30.3517 25.6513 31.0905 24.741 31.0905H19.257C19.0406 31.0908 18.8262 31.0483 18.6263 30.9656C18.4263 30.8829 18.2446 30.7615 18.0916 30.6085C17.9385 30.4555 17.8172 30.2738 17.7345 30.0738C17.6518 29.8738 17.6093 29.6595 17.6095 29.4431V28.4574L15.7238 27.8282C14.7396 27.4999 13.8835 26.8703 13.2768 26.0285C12.6701 25.1868 12.3435 24.1756 12.3433 23.138" fill="#2F5A8C"/>
<path fill-rule="evenodd" clip-rule="evenodd" d="M15.9452 27.9016L17.6098 28.457V29.3348C17.6098 30.3033 18.3966 31.0902 19.3652 31.0902H20.7606V32.7376C20.7606 33.0656 20.8909 33.3802 21.1229 33.6122C21.3548 33.8442 21.6694 33.9745 21.9975 33.9745C22.3255 33.9745 22.6401 33.8442 22.8721 33.6122C23.104 33.3802 23.2343 33.0656 23.2343 32.7376V31.0902H24.6315C25.6018 31.0902 26.3886 30.3033 26.3886 29.3348V28.457L28.0532 27.9016C29.1021 27.5523 30.0143 26.8816 30.6605 25.9846C31.3067 25.0877 31.654 24.01 31.6532 22.9045V22.673C30.484 23.6485 26.9149 25.1279 21.9983 23.2576C17.0818 21.3873 13.5263 22.4776 12.3555 23.2576C12.4249 24.3007 12.8035 25.2994 13.4428 26.1265C14.0821 26.9536 14.9533 27.5716 15.9452 27.9016ZM22 13.6113C21.8639 13.6115 21.7298 13.6441 21.6088 13.7064C21.4877 13.7687 21.3833 13.8589 21.304 13.9696L21.3023 13.9713L21.2989 13.9765L21.2835 13.997L21.232 14.069C20.9803 14.4308 20.7413 14.8014 20.5155 15.1799C20.3076 15.5218 20.1198 15.8755 19.9532 16.2393C19.8075 16.565 19.6446 16.997 19.6446 17.405C19.6446 18.0342 19.8846 18.6462 20.3218 19.1022C20.7606 19.5599 21.364 19.8222 22.0018 19.8222C22.636 19.8222 23.2395 19.5599 23.6783 19.1022C24.1172 18.6462 24.3572 18.0342 24.3572 17.405C24.3572 16.997 24.1926 16.565 24.0486 16.2393C23.8819 15.8755 23.6942 15.5218 23.4863 15.1799C23.26 14.8013 23.0204 14.4308 22.768 14.069L22.7166 13.997L22.7029 13.9765L22.6995 13.9713L22.6978 13.9696C22.6184 13.8587 22.5136 13.7683 22.3923 13.706C22.2709 13.6437 22.1365 13.6112 22 13.6113Z" fill="#0F264D"/>
</svg>
