<svg width="16" height="16" viewBox="0 0 16 16" fill="none" xmlns="http://www.w3.org/2000/svg">
<path d="M8.45178 13.3047C8.63494 13.3473 8.65172 13.5872 8.47332 13.6467L7.41998 13.9933C4.77332 14.8467 3.37998 14.1333 2.51998 11.4867L1.66665 8.85334C0.813317 6.20668 1.51998 4.80668 4.16665 3.95334L4.17731 3.94981C4.58018 3.81639 4.98102 4.22365 4.87901 4.63559C4.87264 4.66132 4.8663 4.68724 4.85998 4.71334L4.20665 7.50668C3.47332 10.6467 4.54665 12.38 7.68665 13.1267L8.45178 13.3047Z" fill="#F5A92A"/>
<path d="M11.4467 2.14L10.3334 1.88C8.1067 1.35333 6.78004 1.78666 6.00004 3.4C5.80004 3.80666 5.64004 4.3 5.50671 4.86666L4.85337 7.66C4.20004 10.4467 5.06004 11.82 7.84004 12.48L8.96004 12.7467C9.3467 12.84 9.70671 12.9 10.04 12.9267C12.12 13.1267 13.2267 12.1533 13.7867 9.74666L14.44 6.96C15.0934 4.17333 14.24 2.79333 11.4467 2.14ZM10.1934 8.88666C10.1334 9.11333 9.93337 9.26 9.70671 9.26C9.66671 9.26 9.62671 9.25333 9.58004 9.24666L7.64004 8.75333C7.37337 8.68666 7.21337 8.41333 7.28004 8.14666C7.34671 7.88 7.62004 7.72 7.88671 7.78666L9.8267 8.28C10.1 8.34666 10.26 8.62 10.1934 8.88666ZM12.1467 6.63333C12.0867 6.86 11.8867 7.00666 11.66 7.00666C11.62 7.00666 11.58 7 11.5334 6.99333L8.30004 6.17333C8.03337 6.10666 7.87337 5.83333 7.94004 5.56666C8.00671 5.3 8.28004 5.14 8.54671 5.20666L11.78 6.02666C12.0534 6.08666 12.2134 6.36 12.1467 6.63333Z" fill="#F5A92A"/>
</svg>
