<svg width="40" height="40" viewBox="0 0 40 40" fill="none" xmlns="http://www.w3.org/2000/svg">
<rect width="40" height="40" rx="20" fill="#E2E8F0"/>
<path d="M11 10V30H19.25V26.9231H20.75V30H29V10H11ZM12.5 11.5385H27.5V28.4615H22.25V25.3846H17.75V28.4615H12.5V11.5385ZM14 13.0769V14.6154H17V13.0769H14ZM18.5 13.0769V14.6154H21.5V13.0769H18.5ZM23 13.0769V14.6154H26V13.0769H23ZM14 16.1538V17.6923H17V16.1538H14ZM18.5 16.1538V17.6923H21.5V16.1538H18.5ZM23 16.1538V17.6923H26V16.1538H23ZM14 19.2308V20.7692H17V19.2308H14ZM18.5 19.2308V20.7692H21.5V19.2308H18.5ZM23 19.2308V20.7692H26V19.2308H23ZM14 22.3077V23.8462H17V22.3077H14ZM18.5 22.3077V23.8462H21.5V22.3077H18.5ZM23 22.3077V23.8462H26V22.3077H23ZM14 25.3846V26.9231H17V25.3846H14ZM23 25.3846V26.9231H26V25.3846H23Z" fill="#2F5A8C"/>
</svg>
