<svg width="44" height="44" viewBox="0 0 44 44" fill="none" xmlns="http://www.w3.org/2000/svg">
<rect width="44" height="44" rx="22" fill="#E2E8F0"/>
<path d="M22 12C16.49 12 12 16.49 12 22C12 27.51 16.49 32 22 32C27.51 32 32 27.51 32 22C32 16.49 27.51 12 22 12ZM26.35 25.57C26.21 25.81 25.96 25.94 25.7 25.94C25.57 25.94 25.44 25.91 25.32 25.83L22.22 23.98C21.45 23.52 20.88 22.51 20.88 21.62V17.52C20.88 17.11 21.22 16.77 21.63 16.77C22.04 16.77 22.38 17.11 22.38 17.52V21.62C22.38 21.98 22.68 22.51 22.99 22.69L26.09 24.54C26.45 24.75 26.57 25.21 26.35 25.57Z" fill="#2F5A8C"/>
</svg>
