<svg width="35" height="27" viewBox="0 0 35 27" fill="none" xmlns="http://www.w3.org/2000/svg">
<path d="M11.0912 13.4657C11.0912 14.1922 10.5137 14.7451 9.78186 14.7451C9.23431 14.7451 8.82928 14.4354 8.82928 13.8525C8.82928 13.1261 9.39504 12.5432 10.1215 12.5432C10.6755 12.5432 11.0912 12.8828 11.0912 13.4657ZM4.79289 10.5791H4.51322C4.42428 10.5791 4.33428 10.6391 4.32249 10.7398L4.0664 12.3299L4.55501 12.3117C5.2097 12.3117 5.71546 12.2228 5.8344 11.4663C5.97155 10.668 5.4658 10.5791 4.79289 10.5791ZM21.6992 10.5791H21.4314C21.3242 10.5791 21.2524 10.6391 21.2406 10.7398L20.991 12.3299L21.4667 12.3117C22.2404 12.3117 22.7761 12.1328 22.7761 11.2402C22.7697 10.6091 22.2061 10.5791 21.6992 10.5791ZM34.2895 2.85773V23.8123C34.2887 24.5699 33.9873 25.2963 33.4516 25.8321C32.9158 26.3678 32.1895 26.6691 31.4318 26.67H2.85773C2.10007 26.6691 1.37369 26.3678 0.837949 25.8321C0.302205 25.2963 0.000850822 24.5699 0 23.8123V2.85773C0.000850822 2.10007 0.302205 1.37369 0.837949 0.837949C1.37369 0.302205 2.10007 0.000850822 2.85773 0H31.4318C32.1895 0.000850822 32.9158 0.302205 33.4516 0.837949C33.9873 1.37369 34.2887 2.10007 34.2895 2.85773ZM7.63883 10.9177C7.63883 9.66721 6.67447 9.25039 5.57295 9.25039H3.19204C3.11513 9.25098 3.04111 9.27978 2.98403 9.33133C2.92694 9.38288 2.89077 9.4536 2.88237 9.53005L1.90622 15.6077C1.88801 15.7266 1.97802 15.8456 2.09695 15.8456H3.22847C3.3892 15.8456 3.53814 15.673 3.55636 15.5059L3.82424 13.9222C3.88424 13.4936 4.60966 13.6425 4.89575 13.6425C6.59839 13.6425 7.6399 12.631 7.6399 10.9166L7.63883 10.9177ZM12.6514 11.4416H11.5199C11.2938 11.4416 11.282 11.7695 11.2702 11.9302C10.9252 11.4245 10.4248 11.3345 9.85901 11.3345C8.40068 11.3345 7.28737 12.6139 7.28737 14.0251C7.28737 15.1855 8.01386 15.942 9.17431 15.942C9.71007 15.942 10.3765 15.6505 10.7516 15.2337C10.7172 15.3542 10.6971 15.4783 10.6916 15.6034C10.6916 15.7406 10.7516 15.8413 10.8823 15.8413H11.9067C12.0674 15.8413 12.2046 15.6688 12.2346 15.5016L12.8421 11.6742C12.8603 11.5606 12.7703 11.4416 12.6514 11.4416ZM15.0623 17.2696L18.8544 11.7567C18.8844 11.7267 18.8844 11.6967 18.8844 11.6559C18.8844 11.5552 18.7954 11.4481 18.6936 11.4481H17.5503C17.4972 11.4504 17.4453 11.4651 17.3988 11.4909C17.3523 11.5168 17.3125 11.5531 17.2825 11.597L15.7052 13.919L15.0505 11.687C15.0255 11.6194 14.981 11.5606 14.9227 11.5183C14.8643 11.476 14.7947 11.4519 14.7226 11.4491H13.6093C13.5075 11.4491 13.4186 11.5563 13.4186 11.657C13.4186 11.7288 14.579 15.0387 14.6808 15.3537C14.5201 15.5798 13.4604 17.0564 13.4604 17.2353C13.4604 17.3425 13.5493 17.426 13.6511 17.426H14.7944C14.8478 17.4223 14.8997 17.4064 14.9461 17.3797C14.9925 17.353 15.0322 17.3161 15.0623 17.2717V17.2696ZM24.5452 10.9177C24.5452 9.66721 23.5808 9.25039 22.4793 9.25039H20.1155C20.0366 9.25041 19.9602 9.27858 19.9001 9.32983C19.84 9.38108 19.8001 9.45207 19.7877 9.53005L18.8233 15.6023C18.8115 15.7213 18.9004 15.8402 19.014 15.8402H20.2345C20.3534 15.8402 20.4424 15.7513 20.4724 15.6495L20.7402 13.9233C20.8002 13.4947 21.5267 13.6436 21.8118 13.6436C23.5026 13.6436 24.5452 12.6321 24.5452 10.9177ZM29.5567 11.4416H28.4251C28.1991 11.4416 28.1873 11.7695 28.1691 11.9302C27.8412 11.4245 27.3354 11.3345 26.7579 11.3345C25.2995 11.3345 24.1862 12.6139 24.1862 14.0251C24.1862 15.1855 24.9127 15.942 26.0732 15.942C26.6271 15.942 27.2936 15.6505 27.6504 15.2337C27.6322 15.3227 27.5904 15.5134 27.5904 15.6034C27.5904 15.7406 27.6504 15.8413 27.7812 15.8413H28.8109C28.9716 15.8413 29.1088 15.6688 29.1388 15.5016L29.7463 11.6742C29.7645 11.5606 29.6756 11.4416 29.5567 11.4416ZM32.3844 9.45933C32.3844 9.34039 32.2955 9.25146 32.1937 9.25146H31.0921C31.0032 9.25146 30.9132 9.32325 30.9014 9.41218L29.937 15.6034L29.9199 15.6334C29.9199 15.7406 30.0088 15.8413 30.1278 15.8413H31.1104C31.2593 15.8413 31.4082 15.6688 31.42 15.5016L32.3844 9.47755V9.45933ZM27.0268 12.5432C26.3003 12.5432 25.7346 13.1207 25.7346 13.8525C25.7346 14.4301 26.1514 14.7451 26.6989 14.7451C27.4136 14.7451 27.9912 14.1976 27.9912 13.4657C27.9976 12.8828 27.5808 12.5432 27.0268 12.5432Z" fill="#2F5A8C"/>
</svg>
