<svg width="16" height="16" viewBox="0 0 16 16" fill="none" xmlns="http://www.w3.org/2000/svg">
<path d="M7.9799 1.33334C4.2999 1.33334 1.31323 4.32001 1.31323 8.00001C1.31323 11.68 4.2999 14.6667 7.9799 14.6667C11.6599 14.6667 14.6466 11.68 14.6466 8.00001C14.6466 4.32001 11.6666 1.33334 7.9799 1.33334ZM7.14657 10.02C7.14657 10.34 7.01323 10.4667 6.67323 10.4667H5.80657C5.46657 10.4667 5.33323 10.34 5.33323 10.02V5.98001C5.33323 5.66001 5.46657 5.53334 5.80657 5.53334H6.66657C7.00657 5.53334 7.1399 5.66001 7.1399 5.98001V10.02H7.14657ZM10.6666 10.02C10.6666 10.34 10.5332 10.4667 10.1932 10.4667H9.33323C8.99323 10.4667 8.8599 10.34 8.8599 10.02V5.98001C8.8599 5.66001 8.99323 5.53334 9.33323 5.53334H10.1932C10.5332 5.53334 10.6666 5.66001 10.6666 5.98001V10.02Z" fill="#D64545"/>
</svg>
