<svg width="40" height="40" viewBox="0 0 40 40" fill="none" xmlns="http://www.w3.org/2000/svg">
<rect width="40" height="40" rx="20" fill="#E2E8F0"/>
<path d="M24.24 10H15.76C13 10 12 11 12 13.81V26.19C12 29 13 30 15.76 30H24.23C27 30 28 29 28 26.19V13.81C28 11 27 10 24.24 10ZM20 27.3C19.04 27.3 18.25 26.51 18.25 25.55C18.25 24.59 19.04 23.8 20 23.8C20.96 23.8 21.75 24.59 21.75 25.55C21.75 26.51 20.96 27.3 20 27.3ZM22 14.25H18C17.59 14.25 17.25 13.91 17.25 13.5C17.25 13.09 17.59 12.75 18 12.75H22C22.41 12.75 22.75 13.09 22.75 13.5C22.75 13.91 22.41 14.25 22 14.25Z" fill="#2F5A8C"/>
</svg>
