<svg width="40" height="40" viewBox="0 0 40 40" fill="none" xmlns="http://www.w3.org/2000/svg">
<rect width="40" height="40" rx="20" fill="#FBFCFF"/>
<path d="M23.3899 13.2103L24.7999 16.0303C24.9899 16.4203 25.4999 16.7903 25.9299 16.8703L28.4799 17.2903C30.1099 17.5603 30.4899 18.7403 29.3199 19.9203L27.3299 21.9103C26.9999 22.2403 26.8099 22.8903 26.9199 23.3603L27.4899 25.8203C27.9399 27.7603 26.8999 28.5203 25.1899 27.5003L22.7999 26.0803C22.3699 25.8203 21.6499 25.8203 21.2199 26.0803L18.8299 27.5003C17.1199 28.5103 16.0799 27.7603 16.5299 25.8203L17.0999 23.3603C17.1899 22.8803 16.9999 22.2303 16.6699 21.9003L14.6799 19.9103C13.5099 18.7403 13.8899 17.5603 15.5199 17.2803L18.0699 16.8603C18.4999 16.7903 19.0099 16.4103 19.1999 16.0203L20.6099 13.2003C21.3799 11.6803 22.6199 11.6803 23.3899 13.2103Z" fill="#2F5A8C"/>
<path d="M16 13.75H10C9.59 13.75 9.25 13.41 9.25 13C9.25 12.59 9.59 12.25 10 12.25H16C16.41 12.25 16.75 12.59 16.75 13C16.75 13.41 16.41 13.75 16 13.75Z" fill="#2F5A8C"/>
<path d="M13 27.75H10C9.59 27.75 9.25 27.41 9.25 27C9.25 26.59 9.59 26.25 10 26.25H13C13.41 26.25 13.75 26.59 13.75 27C13.75 27.41 13.41 27.75 13 27.75Z" fill="#2F5A8C"/>
<path d="M11 20.75H10C9.59 20.75 9.25 20.41 9.25 20C9.25 19.59 9.59 19.25 10 19.25H11C11.41 19.25 11.75 19.59 11.75 20C11.75 20.41 11.41 20.75 11 20.75Z" fill="#2F5A8C"/>
</svg>
