<svg width="16" height="16" viewBox="0 0 16 16" fill="none" xmlns="http://www.w3.org/2000/svg">
<path d="M8.00004 1.33334C4.32671 1.33334 1.33337 4.32668 1.33337 8.00001C1.33337 11.6733 4.32671 14.6667 8.00004 14.6667C11.6734 14.6667 14.6667 11.6733 14.6667 8.00001C14.6667 4.32668 11.6734 1.33334 8.00004 1.33334ZM10.9 10.38C10.8067 10.54 10.64 10.6267 10.4667 10.6267C10.38 10.6267 10.2934 10.6067 10.2134 10.5533L8.14671 9.32001C7.63337 9.01334 7.25337 8.34001 7.25337 7.74668V5.01334C7.25337 4.74001 7.48004 4.51334 7.75337 4.51334C8.02671 4.51334 8.25337 4.74001 8.25337 5.01334V7.74668C8.25337 7.98668 8.45337 8.34001 8.66004 8.46001L10.7267 9.69334C10.9667 9.83334 11.0467 10.14 10.9 10.38Z" fill="#2F5A8C"/>
</svg>
