<svg width="24" height="24" viewBox="0 0 24 24" fill="none" xmlns="http://www.w3.org/2000/svg">
<path d="M3.20013 21.9969C3.20013 22.2177 3.37933 22.3969 3.60013 22.3969H9.59853V17.5969H14.3985V22.3969H20.3969C20.503 22.3969 20.6048 22.3548 20.6798 22.2797C20.7548 22.2047 20.7969 22.103 20.7969 21.9969V12.7969H3.20013V21.9969ZM22.2881 10.5249L20.7969 9.2129V3.2001C20.7969 2.77575 20.6284 2.36878 20.3283 2.06873C20.0282 1.76867 19.6213 1.6001 19.1969 1.6001C18.7726 1.6001 18.3656 1.76867 18.0656 2.06873C17.7655 2.36878 17.5969 2.77575 17.5969 3.2001V6.4001L12.2897 1.7441C12.2171 1.66697 12.1169 1.6218 12.011 1.6185C11.9051 1.6152 11.8022 1.65404 11.7249 1.7265L11.7073 1.7441L1.70733 10.4849C1.6547 10.5416 1.61966 10.6124 1.60645 10.6887C1.59325 10.7649 1.60244 10.8434 1.63293 10.9145C1.66341 10.9856 1.71388 11.0464 1.7782 11.0894C1.84253 11.1324 1.91795 11.1559 1.99533 11.1569L4.80013 11.2001H21.9953C22.0734 11.2003 22.1499 11.1776 22.2153 11.1349C22.2806 11.0921 22.332 11.0312 22.3632 10.9596C22.3943 10.8879 22.4038 10.8088 22.3905 10.7318C22.3771 10.6548 22.3416 10.5819 22.2881 10.5249Z" fill="#2F5A8C"/>
</svg>
