<svg width="40" height="40" viewBox="0 0 40 40" fill="none" xmlns="http://www.w3.org/2000/svg">
<rect width="40" height="40" rx="20" fill="#E2E8F0"/>
<path d="M28.9101 19.1203V14.7303C28.9101 13.9103 28.2901 12.9803 27.5201 12.6703L21.9501 10.3903C20.7001 9.88031 19.2901 9.88031 18.0401 10.3903L12.4701 12.6703C11.7101 12.9803 11.0901 13.9103 11.0901 14.7303V19.1203C11.0901 24.0103 14.6401 28.5903 19.4901 29.9303C19.8201 30.0203 20.1801 30.0203 20.5101 29.9303C25.3601 28.5903 28.9101 24.0103 28.9101 19.1203ZM20.7501 20.8703V23.5003C20.7501 23.9103 20.4101 24.2503 20.0001 24.2503C19.5901 24.2503 19.2501 23.9103 19.2501 23.5003V20.8703C18.2401 20.5503 17.5001 19.6103 17.5001 18.5003C17.5001 17.1203 18.6201 16.0003 20.0001 16.0003C21.3801 16.0003 22.5001 17.1203 22.5001 18.5003C22.5001 19.6203 21.7601 20.5503 20.7501 20.8703Z" fill="#2F5A8C"/>
</svg>
