<svg width="16" height="16" viewBox="0 0 16 16" fill="none" xmlns="http://www.w3.org/2000/svg">
<path d="M12.0466 5.6731L6.33993 2.81977C2.5066 0.899769 0.933265 2.4731 2.85327 6.30644L3.43326 7.46644C3.59993 7.80644 3.59993 8.19977 3.43326 8.53977L2.85327 9.6931C0.933265 13.5264 2.49993 15.0998 6.33993 13.1798L12.0466 10.3264C14.6066 9.04644 14.6066 6.9531 12.0466 5.6731ZM9.89326 8.49977H6.29326C6.01993 8.49977 5.79326 8.2731 5.79326 7.99977C5.79326 7.72644 6.01993 7.49977 6.29326 7.49977H9.89326C10.1666 7.49977 10.3933 7.72644 10.3933 7.99977C10.3933 8.2731 10.1666 8.49977 9.89326 8.49977Z" fill="white"/>
</svg>
