<svg width="16" height="16" viewBox="0 0 16 16" fill="none" xmlns="http://www.w3.org/2000/svg">
<path d="M14.0466 3.48667C12.9733 3.38 11.8999 3.3 10.8199 3.24V3.23334L10.6733 2.36667C10.5733 1.75334 10.4266 0.833336 8.86661 0.833336H7.11994C5.56661 0.833336 5.41994 1.71334 5.31328 2.36L5.17328 3.21334C4.55328 3.25334 3.93328 3.29334 3.31328 3.35334L1.95328 3.48667C1.67328 3.51334 1.47328 3.76 1.49994 4.03334C1.52661 4.30667 1.76661 4.50667 2.04661 4.48L3.40661 4.34667C6.89994 4 10.4199 4.13334 13.9533 4.48667C13.9733 4.48667 13.9866 4.48667 14.0066 4.48667C14.2599 4.48667 14.4799 4.29334 14.5066 4.03334C14.5266 3.76 14.3266 3.51334 14.0466 3.48667Z" fill="#D64545"/>
<path d="M12.8199 5.42666C12.6599 5.26 12.4399 5.16666 12.2132 5.16666H3.78658C3.55991 5.16666 3.33325 5.26 3.17991 5.42666C3.02658 5.59333 2.93991 5.82 2.95325 6.05333L3.36658 12.8933C3.43991 13.9067 3.53325 15.1733 5.85991 15.1733H10.1399C12.4666 15.1733 12.5599 13.9133 12.6332 12.8933L13.0466 6.06C13.0599 5.82 12.9732 5.59333 12.8199 5.42666ZM9.10658 11.8333H6.88658C6.61325 11.8333 6.38658 11.6067 6.38658 11.3333C6.38658 11.06 6.61325 10.8333 6.88658 10.8333H9.10658C9.37991 10.8333 9.60658 11.06 9.60658 11.3333C9.60658 11.6067 9.37991 11.8333 9.10658 11.8333ZM9.66658 9.16666H6.33325C6.05991 9.16666 5.83325 8.94 5.83325 8.66666C5.83325 8.39333 6.05991 8.16666 6.33325 8.16666H9.66658C9.93991 8.16666 10.1666 8.39333 10.1666 8.66666C10.1666 8.94 9.93991 9.16666 9.66658 9.16666Z" fill="#D64545"/>
</svg>
