<svg width="24" height="24" viewBox="0 0 24 24" fill="none" xmlns="http://www.w3.org/2000/svg">
<rect width="24" height="24" rx="12" fill="#E5E5E5"/>
<path d="M14.26 7.47332L15.2 9.35332C15.3267 9.61332 15.6667 9.85999 15.9533 9.91332L17.6533 10.1933C18.74 10.3733 18.9933 11.16 18.2133 11.9467L16.8867 13.2733C16.6667 13.4933 16.54 13.9267 16.6133 14.24L16.9933 15.88C17.2933 17.1733 16.6 17.68 15.46 17L13.8667 16.0533C13.58 15.88 13.1 15.88 12.8133 16.0533L11.22 17C10.08 17.6733 9.38667 17.1733 9.68667 15.88L10.0667 14.24C10.1267 13.92 10 13.4867 9.78 13.2667L8.45334 11.94C7.67334 11.16 7.92667 10.3733 9.01334 10.1867L10.7133 9.90666C11 9.85999 11.34 9.60666 11.4667 9.34666L12.4067 7.46666C12.92 6.45332 13.7467 6.45332 14.26 7.47332Z" fill="#2F5A8C"/>
<path d="M9.33331 7.83334H5.33331C5.05998 7.83334 4.83331 7.60668 4.83331 7.33334C4.83331 7.06001 5.05998 6.83334 5.33331 6.83334H9.33331C9.60665 6.83334 9.83331 7.06001 9.83331 7.33334C9.83331 7.60668 9.60665 7.83334 9.33331 7.83334Z" fill="#2F5A8C"/>
<path d="M7.33331 17.1667H5.33331C5.05998 17.1667 4.83331 16.94 4.83331 16.6667C4.83331 16.3933 5.05998 16.1667 5.33331 16.1667H7.33331C7.60665 16.1667 7.83331 16.3933 7.83331 16.6667C7.83331 16.94 7.60665 17.1667 7.33331 17.1667Z" fill="#2F5A8C"/>
<path d="M5.99998 12.5H5.33331C5.05998 12.5 4.83331 12.2733 4.83331 12C4.83331 11.7267 5.05998 11.5 5.33331 11.5H5.99998C6.27331 11.5 6.49998 11.7267 6.49998 12C6.49998 12.2733 6.27331 12.5 5.99998 12.5Z" fill="#2F5A8C"/>
</svg>
