<svg width="40" height="40" viewBox="0 0 40 40" fill="none" xmlns="http://www.w3.org/2000/svg">
<rect width="40" height="40" rx="20" fill="#E2E8F0"/>
<path d="M17.3 13.8421C17.3 13.0883 17.5845 12.3654 18.0908 11.8324C18.5972 11.2994 19.2839 11 20 11C20.7161 11 21.4028 11.2994 21.9092 11.8324C22.4155 12.3654 22.7 13.0883 22.7 13.8421C22.7 14.5959 22.4155 15.3188 21.9092 15.8518C21.4028 16.3848 20.7161 16.6842 20 16.6842C19.2839 16.6842 18.5972 16.3848 18.0908 15.8518C17.5845 15.3188 17.3 14.5959 17.3 13.8421ZM25.85 11.9474C25.2533 11.9474 24.681 12.1969 24.259 12.6411C23.8371 13.0852 23.6 13.6876 23.6 14.3158C23.6 14.9439 23.8371 15.5464 24.259 15.9905C24.681 16.4347 25.2533 16.6842 25.85 16.6842C26.4467 16.6842 27.019 16.4347 27.441 15.9905C27.8629 15.5464 28.1 14.9439 28.1 14.3158C28.1 13.6876 27.8629 13.0852 27.441 12.6411C27.019 12.1969 26.4467 11.9474 25.85 11.9474ZM14.15 11.9474C13.5533 11.9474 12.981 12.1969 12.559 12.6411C12.1371 13.0852 11.9 13.6876 11.9 14.3158C11.9 14.9439 12.1371 15.5464 12.559 15.9905C12.981 16.4347 13.5533 16.6842 14.15 16.6842C14.7467 16.6842 15.319 16.4347 15.741 15.9905C16.1629 15.5464 16.4 14.9439 16.4 14.3158C16.4 13.6876 16.1629 13.0852 15.741 12.6411C15.319 12.1969 14.7467 11.9474 14.15 11.9474ZM17.8625 17.6316C17.3553 17.6316 16.8688 17.8437 16.5102 18.2212C16.1515 18.5988 15.95 19.1108 15.95 19.6447V24.7368C15.95 25.8675 16.3767 26.9519 17.1362 27.7514C17.8957 28.5508 18.9259 29 20 29C21.0741 29 22.1043 28.5508 22.8638 27.7514C23.6233 26.9519 24.05 25.8675 24.05 24.7368V19.6447C24.05 19.1108 23.8485 18.5988 23.4898 18.2212C23.1312 17.8437 22.6447 17.6316 22.1375 17.6316H17.8625ZM15.05 19.6447C15.05 18.8868 15.3209 18.1948 15.7664 17.6709C15.6416 17.6447 15.5147 17.6315 15.3875 17.6316H12.9125C12.4053 17.6316 11.9188 17.8437 11.5602 18.2212C11.2015 18.5988 11 19.1108 11 19.6447V24.2632C10.9998 24.8358 11.1406 25.3987 11.4085 25.897C11.6764 26.3954 12.0623 26.8122 12.5287 27.1069C12.9951 27.4017 13.5261 27.5642 14.0699 27.5788C14.6137 27.5934 15.1518 27.4594 15.6318 27.1901C15.2486 26.4354 15.0487 25.5926 15.05 24.7368V19.6447ZM24.95 24.7368C24.95 25.6236 24.7394 26.4587 24.3681 27.1901C24.8482 27.4594 25.3863 27.5934 25.9301 27.5788C26.4739 27.5642 27.0049 27.4017 27.4713 27.1069C27.9377 26.8122 28.3236 26.3954 28.5915 25.897C28.8594 25.3987 29.0002 24.8358 29 24.2632V19.6447C29 19.1108 28.7985 18.5988 28.4398 18.2212C28.0812 17.8437 27.5947 17.6316 27.0875 17.6316H24.6125C24.4826 17.6319 24.3563 17.645 24.2336 17.6709C24.6957 18.2132 24.9508 18.9163 24.95 19.6447V24.7368Z" fill="#2F5A8C"/>
</svg>
