<svg width="54" height="54" viewBox="0 0 54 54" fill="none" xmlns="http://www.w3.org/2000/svg">
<path d="M32.8001 17.1L22.8701 19.59C21.4201 19.95 19.9501 21.42 19.5901 22.87L17.1001 32.8C16.3501 35.8 18.1901 37.65 21.2001 36.9L31.1301 34.42C32.5701 34.06 34.0501 32.58 34.4101 31.14L36.9001 21.2C37.6501 18.2 35.8001 16.35 32.8001 17.1Z" stroke="#2F5A8C" stroke-width="1.5" stroke-linecap="round" stroke-linejoin="round"/>
<path d="M27 30.5C28.933 30.5 30.5 28.933 30.5 27C30.5 25.067 28.933 23.5 27 23.5C25.067 23.5 23.5 25.067 23.5 27C23.5 28.933 25.067 30.5 27 30.5Z" stroke="#2F5A8C" stroke-width="1.5" stroke-linecap="round" stroke-linejoin="round"/>
</svg>
