<svg width="26" height="24" viewBox="0 0 26 24" fill="none" xmlns="http://www.w3.org/2000/svg">
<path d="M11.5488 13.8996L9.06655 11.5211C8.93756 11.3971 8.78046 11.3307 8.59526 11.3218C8.40914 11.3129 8.24006 11.382 8.08803 11.5291C7.94061 11.6708 7.86689 11.8276 7.86689 11.9995C7.86689 12.1713 7.94061 12.3281 8.08803 12.4698L10.7665 15.045C10.9904 15.2594 11.2512 15.3666 11.5488 15.3666C11.8464 15.3666 12.1072 15.2594 12.3311 15.045L17.912 9.67944C18.0465 9.5501 18.117 9.39774 18.1234 9.22234C18.1299 9.04606 18.0594 8.88484 17.912 8.73867C17.7599 8.59251 17.5955 8.5181 17.4186 8.51544C17.2417 8.51278 17.0776 8.58453 16.9265 8.7307L11.5488 13.8996ZM8.39762 23.4481L6.57878 20.5248L3.1498 19.8286C2.87522 19.7798 2.65639 19.6381 2.4933 19.4033C2.33021 19.1695 2.26295 18.9206 2.29152 18.6566L2.61907 15.2603L0.293004 12.709C0.097668 12.5168 0 12.2803 0 11.9995C0 11.7187 0.097668 11.4821 0.293004 11.2899L2.61907 8.73867L2.29152 5.34368C2.26387 5.07881 2.33114 4.82944 2.4933 4.59558C2.65639 4.36172 2.87522 4.21998 3.1498 4.17037L6.5774 3.47543L8.39624 0.552145C8.5455 0.314739 8.74591 0.150858 8.99745 0.0605016C9.24899 -0.0307403 9.50928 -0.0187814 9.77833 0.0963783L13 1.40521L16.2203 0.0963783C16.4903 -0.0187814 16.751 -0.0307403 17.0026 0.0605016C17.2541 0.150858 17.4545 0.314739 17.6038 0.552145L19.4212 3.47543L22.8502 4.17037C23.1248 4.21998 23.3436 4.36172 23.5067 4.59558C23.6698 4.82944 23.737 5.07881 23.7085 5.34368L23.3823 8.73867L25.707 11.2899C25.9023 11.4821 26 11.7187 26 11.9995C26 12.2803 25.9023 12.5172 25.707 12.7104L23.3823 15.2603L23.7085 18.6553C23.7361 18.9201 23.6689 19.1695 23.5067 19.4033C23.3436 19.6381 23.1248 19.7798 22.8502 19.8286L19.4226 20.5248L17.6038 23.4481C17.4545 23.6846 17.2541 23.8485 17.0026 23.9398C16.751 24.031 16.4907 24.0186 16.2217 23.9026L13 22.5937L9.77972 23.9026C9.50975 24.0177 9.24899 24.0297 8.99745 23.9384C8.74591 23.8481 8.5455 23.6842 8.39624 23.4468" fill="#22C55E"/>
</svg>
