<svg width="34" height="27" viewBox="0 0 34 27" fill="none" xmlns="http://www.w3.org/2000/svg">
<path fill-rule="evenodd" clip-rule="evenodd" d="M0 3.33333C0 1.5 1.5 0 3.33333 0H30C30.8841 0 31.7319 0.351189 32.357 0.976311C32.9821 1.60143 33.3333 2.44928 33.3333 3.33333V23.3333C33.3333 24.2174 32.9821 25.0652 32.357 25.6904C31.7319 26.3155 30.8841 26.6667 30 26.6667H3.33333C2.44928 26.6667 1.60143 26.3155 0.976311 25.6904C0.351189 25.0652 0 24.2174 0 23.3333V3.33333ZM20.8333 8.66667C21.5 8.66667 22.1667 8.66667 22.6667 9L22.5 10.6667H22.3333C21.8318 10.3554 21.2567 10.1828 20.6667 10.1667C19.8333 10.1667 19.5 10.6667 19.5 11C19.5 11.3333 19.8333 11.5 20.6667 11.8333C21.8333 12.5 22.3333 13.1667 22.3333 14C22.3333 15.6667 21 16.8333 18.6667 16.8333C17.6667 16.8333 16.8333 16.5 16.3333 16.3333L16.6667 14.6667H16.8333C17.5 15 18 15.1667 18.8333 15.1667C19.5 15.1667 20.1667 14.8333 20.1667 14.3333C20.1667 14 19.8333 13.8333 19 13.3333C18.1667 13 17.1667 12.3333 17.1667 11.1667C17.1667 9.66667 18.8333 8.66667 20.8333 8.66667ZM26.6667 8.66667H28.3333L30 16.6667H28L27.6667 15.5H25L24.5 16.6667H22.3333L25.5 9.33333C25.6667 8.83333 26 8.83333 26.6667 8.83333V8.66667ZM16.3333 8.66667H14.1667L12.8333 16.6667H15L16.3333 8.66667ZM8.83333 14.1667L8.66667 13L7.83333 9.33333C7.83333 8.83333 7.33333 8.83333 6.83333 8.66667H3.5V8.83333L5.5 9.66667L5.66667 10L7.5 16.6667H10L13.3333 8.83333H11.1667L9 14.1667H8.83333Z" fill="#2F5A8C"/>
</svg>
