<svg width="17" height="16" viewBox="0 0 17 16" fill="none" xmlns="http://www.w3.org/2000/svg">
<path d="M7.55114 9.2664L5.92813 7.68074C5.84379 7.59806 5.74107 7.55377 5.61998 7.54786C5.49828 7.54196 5.38773 7.58802 5.28833 7.68605C5.19193 7.78054 5.14374 7.88507 5.14374 7.99964C5.14374 8.11421 5.19193 8.21874 5.28833 8.31323L7.03966 10.03C7.18605 10.1729 7.35655 10.2444 7.55114 10.2444C7.74573 10.2444 7.91622 10.1729 8.06262 10.03L11.7117 6.45296C11.7996 6.36674 11.8457 6.26516 11.8499 6.14823C11.8542 6.03071 11.8081 5.92322 11.7117 5.82578C11.6123 5.72834 11.5047 5.67873 11.3891 5.67696C11.2734 5.67519 11.1662 5.72302 11.0674 5.82047L7.55114 9.2664ZM5.49075 15.6321L4.30151 13.6832L2.05948 13.219C1.87995 13.1866 1.73687 13.0921 1.63024 12.9356C1.5236 12.7797 1.47962 12.6137 1.4983 12.4377L1.71247 10.1735L0.19158 8.47268C0.0638599 8.34453 0 8.18685 0 7.99964C0 7.81244 0.0638599 7.65475 0.19158 7.5266L1.71247 5.82578L1.4983 3.56245C1.48023 3.38587 1.5242 3.21963 1.63024 3.06372C1.73687 2.90781 1.87995 2.81332 2.05948 2.78025L4.30061 2.31695L5.48985 0.368097C5.58744 0.209826 5.71848 0.100572 5.88295 0.0403344C6.04742 -0.0204935 6.21761 -0.012521 6.39353 0.0642522L8.5 0.936809L10.6056 0.0642522C10.7821 -0.012521 10.9526 -0.0204935 11.1171 0.0403344C11.2815 0.100572 11.4126 0.209826 11.5102 0.368097L12.6985 2.31695L14.9405 2.78025C15.12 2.81332 15.2631 2.90781 15.3698 3.06372C15.4764 3.21963 15.5204 3.38587 15.5017 3.56245L15.2884 5.82578L16.8084 7.5266C16.9361 7.65475 17 7.81244 17 7.99964C17 8.18685 16.9361 8.34483 16.8084 8.47357L15.2884 10.1735L15.5017 12.4368C15.5198 12.6134 15.4758 12.7797 15.3698 12.9356C15.2631 13.0921 15.12 13.1866 14.9405 13.219L12.6994 13.6832L11.5102 15.6321C11.4126 15.7898 11.2815 15.899 11.1171 15.9598C10.9526 16.0207 10.7824 16.0124 10.6065 15.935L8.5 15.0625L6.39443 15.935C6.21791 16.0118 6.04742 16.0198 5.88295 15.959C5.71848 15.8987 5.58744 15.7895 5.48985 15.6312" fill="#22C55E"/>
</svg>
