<svg width="24" height="24" viewBox="0 0 24 24" fill="none" xmlns="http://www.w3.org/2000/svg">
<path d="M12.4275 2.81823C12.3747 2.75656 12.3092 2.70705 12.2354 2.6731C12.1617 2.63916 12.0814 2.62158 12.0002 2.62158C11.919 2.62158 11.8388 2.63916 11.7651 2.6731C11.6913 2.70705 11.6258 2.75656 11.573 2.81823C10.0889 4.55401 5.25 10.5549 5.25 15.0001C5.25 19.1424 7.85812 21.7501 12 21.7501C16.1419 21.7501 18.75 19.1424 18.75 15.0001C18.75 10.5549 13.9111 4.55401 12.4275 2.81823ZM12.75 19.3126C12.6599 19.3128 12.5711 19.2914 12.491 19.2501C12.4109 19.2088 12.3419 19.1489 12.2898 19.0754C12.2377 19.0019 12.2041 18.9169 12.1916 18.8277C12.1792 18.7385 12.1884 18.6475 12.2184 18.5626C12.2568 18.4518 12.3291 18.3559 12.4252 18.2885C12.5212 18.2212 12.636 18.1859 12.7533 18.1876C13.4978 18.186 14.2114 17.8895 14.7379 17.363C15.2644 16.8365 15.5609 16.1229 15.5625 15.3784C15.5608 15.2611 15.5961 15.1463 15.6634 15.0503C15.7308 14.9542 15.8267 14.8819 15.9375 14.8435C16.0224 14.8135 16.1134 14.8043 16.2026 14.8167C16.2918 14.8292 16.3768 14.8628 16.4503 14.9149C16.5238 14.967 16.5837 15.036 16.625 15.1161C16.6663 15.1962 16.6877 15.285 16.6875 15.3751C16.6864 16.419 16.2712 17.4199 15.533 18.1581C14.7948 18.8963 13.7939 19.3115 12.75 19.3126Z" fill="white"/>
</svg>
