<svg width="44" height="44" viewBox="0 0 44 44" fill="none" xmlns="http://www.w3.org/2000/svg">
<rect width="44" height="44" rx="22" fill="#E2E8F0"/>
<path d="M26.19 12H17.81C14.17 12 12 14.17 12 17.81V26.18C12 29.83 14.17 32 17.81 32H26.18C29.82 32 31.99 29.83 31.99 26.19V17.81C32 14.17 29.83 12 26.19 12ZM26.88 21.53C26.88 21.92 26.57 22.23 26.18 22.23C25.79 22.23 25.48 21.92 25.48 21.53V21.35L22.76 24.07C22.61 24.22 22.41 24.29 22.2 24.27C21.99 24.25 21.8 24.14 21.69 23.96L20.67 22.44L18.29 24.82C18.15 24.96 17.98 25.02 17.8 25.02C17.62 25.02 17.44 24.95 17.31 24.82C17.04 24.55 17.04 24.11 17.31 23.83L20.29 20.85C20.44 20.7 20.64 20.63 20.85 20.65C21.06 20.67 21.25 20.78 21.36 20.96L22.38 22.48L24.49 20.37H24.31C23.92 20.37 23.61 20.06 23.61 19.67C23.61 19.28 23.92 18.97 24.31 18.97H26.17C26.26 18.97 26.35 18.99 26.44 19.02C26.61 19.09 26.75 19.23 26.82 19.4C26.86 19.49 26.87 19.58 26.87 19.67V21.53H26.88Z" fill="#D64545"/>
</svg>
